<mxfile host="app.diagrams.net" agent="Mozilla/5.0 (Windows NT 10.0; Win64; x64) AppleWebKit/537.36 (KHTML, like Gecko) Chrome/129.0.0.0 Safari/537.36" version="24.7.17">
  <diagram name="Page-1" id="b_A-ekRquwwEHtfQxpD1">
    <mxGraphModel>
      <root>
        <mxCell id="0" />
        <mxCell id="1" parent="0" />
        <mxCell id="2" value="Cloud" style="whiteSpace=wrap;strokeWidth=2;" vertex="1" parent="1">
          <mxGeometry x="8" y="204" width="566" height="669" as="geometry" />
        </mxCell>
        <mxCell id="3" value="Security Group" style="whiteSpace=wrap;strokeWidth=2;" vertex="1" parent="1">
          <mxGeometry x="73" y="229" width="236" height="200" as="geometry" />
        </mxCell>
        <mxCell id="4" value="Virtual Machines" style="whiteSpace=wrap;strokeWidth=2;" vertex="1" parent="1">
          <mxGeometry x="31" y="527" width="500" height="321" as="geometry" />
        </mxCell>
        <mxCell id="5" value="On-Premises" style="whiteSpace=wrap;strokeWidth=2;" vertex="1" parent="1">
          <mxGeometry x="594" y="8" width="810" height="446" as="geometry" />
        </mxCell>
        <mxCell id="6" value="Firewall" style="whiteSpace=wrap;strokeWidth=2;" vertex="1" parent="1">
          <mxGeometry x="614" y="33" width="188" height="98" as="geometry" />
        </mxCell>
        <mxCell id="7" value="Servers" style="whiteSpace=wrap;strokeWidth=2;" vertex="1" parent="1">
          <mxGeometry x="822" y="33" width="562" height="396" as="geometry" />
        </mxCell>
        <mxCell id="8" value="Servers 1" style="whiteSpace=wrap;strokeWidth=2;" vertex="1" parent="1">
          <mxGeometry x="1089" y="58" width="125" height="48" as="geometry" />
        </mxCell>
        <mxCell id="9" value="Load Balancer" style="rhombus;strokeWidth=2;whiteSpace=wrap;" vertex="1" parent="1">
          <mxGeometry x="1025" y="254" width="150" height="150" as="geometry" />
        </mxCell>
        <mxCell id="10" value="Firewall" style="whiteSpace=wrap;strokeWidth=2;" vertex="1" parent="1">
          <mxGeometry x="649" y="58" width="118" height="48" as="geometry" />
        </mxCell>
        <mxCell id="11" value="VM 1" style="whiteSpace=wrap;strokeWidth=2;" vertex="1" parent="1">
          <mxGeometry x="283" y="774" width="95" height="48" as="geometry" />
        </mxCell>
        <mxCell id="12" value="Load Balancer" style="rhombus;strokeWidth=2;whiteSpace=wrap;" vertex="1" parent="1">
          <mxGeometry x="229" y="552" width="150" height="150" as="geometry" />
        </mxCell>
        <mxCell id="13" value="Security Group" style="whiteSpace=wrap;strokeWidth=2;" vertex="1" parent="1">
          <mxGeometry x="108" y="305" width="166" height="48" as="geometry" />
        </mxCell>
        <mxCell id="14" value="Application" style="curved=1;startArrow=none;endArrow=block;exitX=0.04;exitY=1.01;entryX=0.18;entryY=0;" edge="1" parent="1" source="8" target="9">
          <mxGeometry relative="1" as="geometry">
            <Array as="points">
              <mxPoint x="1036" y="131" />
              <mxPoint x="1036" y="229" />
            </Array>
          </mxGeometry>
        </mxCell>
        <mxCell id="15" value="Incoming traffic" style="curved=1;startArrow=none;endArrow=block;exitX=0.79;exitY=0;entryX=0.52;entryY=1.01;" edge="1" parent="1" source="9" target="8">
          <mxGeometry relative="1" as="geometry">
            <Array as="points">
              <mxPoint x="1158" y="229" />
              <mxPoint x="1158" y="131" />
            </Array>
          </mxGeometry>
        </mxCell>
        <mxCell id="16" value="Outgoing traffic" style="curved=1;startArrow=none;endArrow=block;exitX=1;exitY=0.24;entryX=1;entryY=0.95;" edge="1" parent="1" source="9" target="8">
          <mxGeometry relative="1" as="geometry">
            <Array as="points">
              <mxPoint x="1296" y="229" />
              <mxPoint x="1296" y="131" />
            </Array>
          </mxGeometry>
        </mxCell>
        <mxCell id="17" value="Traffic filtering" style="curved=1;startArrow=none;endArrow=block;exitX=0.5;exitY=1.01;entryX=0;entryY=0.23;" edge="1" parent="1" source="10" target="9">
          <mxGeometry relative="1" as="geometry">
            <Array as="points">
              <mxPoint x="708" y="131" />
              <mxPoint x="916" y="168" />
              <mxPoint x="916" y="229" />
            </Array>
          </mxGeometry>
        </mxCell>
        <mxCell id="18" value="Application" style="curved=1;startArrow=none;endArrow=block;exitX=1;exitY=0.05;entryX=1;entryY=0.86;" edge="1" parent="1" source="11" target="12">
          <mxGeometry relative="1" as="geometry">
            <Array as="points">
              <mxPoint x="459" y="738" />
            </Array>
          </mxGeometry>
        </mxCell>
        <mxCell id="19" value="Incoming traffic" style="curved=1;startArrow=none;endArrow=block;exitX=0;exitY=0.79;entryX=0;entryY=0.24;" edge="1" parent="1" source="12" target="11">
          <mxGeometry relative="1" as="geometry">
            <Array as="points">
              <mxPoint x="112" y="738" />
            </Array>
          </mxGeometry>
        </mxCell>
        <mxCell id="20" value="Outgoing traffic" style="curved=1;startArrow=none;endArrow=block;exitX=0.44;exitY=1;entryX=0.33;entryY=0.01;" edge="1" parent="1" source="12" target="11">
          <mxGeometry relative="1" as="geometry">
            <Array as="points">
              <mxPoint x="290" y="738" />
            </Array>
          </mxGeometry>
        </mxCell>
        <mxCell id="21" value="Traffic filtering" style="curved=1;startArrow=none;endArrow=block;exitX=0.5;exitY=1;entryX=0;entryY=0.05;" edge="1" parent="1" source="13" target="12">
          <mxGeometry relative="1" as="geometry">
            <Array as="points">
              <mxPoint x="191" y="527" />
            </Array>
          </mxGeometry>
        </mxCell>
        <mxCell id="22" value="Traffic routing" style="curved=1;startArrow=none;endArrow=block;exitX=0;exitY=0.75;entryX=0.59;entryY=0;" edge="1" parent="1" source="9" target="12">
          <mxGeometry relative="1" as="geometry">
            <Array as="points">
              <mxPoint x="897" y="429" />
              <mxPoint x="897" y="454" />
              <mxPoint x="322" y="490" />
              <mxPoint x="322" y="527" />
            </Array>
          </mxGeometry>
        </mxCell>
        <mxCell id="23" value="Traffic routing" style="curved=1;startArrow=none;endArrow=block;exitX=1;exitY=0.24;entryX=1;entryY=0.73;" edge="1" parent="1" source="12" target="9">
          <mxGeometry relative="1" as="geometry">
            <Array as="points">
              <mxPoint x="501" y="527" />
              <mxPoint x="501" y="490" />
              <mxPoint x="1319" y="454" />
              <mxPoint x="1319" y="429" />
            </Array>
          </mxGeometry>
        </mxCell>
      </root>
    </mxGraphModel>
  </diagram>
</mxfile>
